Metropolis-Regular Italic.ufo
<glyph name="exclam" format="1">
  <advance width="317"/>
  <unicode hex="0021"/>
  <outline>
    <contour>
      <point x="118" y="193" type="line"/>
      <point x="171" y="193" type="line"/>
      <point x="293" y="687" type="line"/>
      <point x="201" y="687" type="line"/>
    </contour>
    <component base="period" xOffset="-1"/>
  </outline>
</glyph>
<glyph name="numbersign" format="1">
  <advance width="689"/>
  <unicode hex="0023"/>
  <outline>
    <contour>
      <point x="61" y="0" type="line"/>
      <point x="128" y="0" type="line"/>
      <point x="444" y="687" type="line"/>
      <point x="377" y="687" type="line"/>
    </contour>
    <contour>
      <point x="277" y="0" type="line"/>
      <point x="344" y="0" type="line"/>
      <point x="660" y="687" type="line"/>
      <point x="593" y="687" type="line"/>
    </contour>
    <contour>
      <point x="30" y="179" type="line"/>
      <point x="544" y="179" type="line"/>
      <point x="572" y="240" type="line"/>
      <point x="58" y="240" type="line"/>
    </contour>
    <contour>
      <point x="152" y="446" type="line"/>
      <point x="667" y="446" type="line"/>
      <point x="695" y="507" type="line"/>
      <point x="179" y="507" type="line"/>
    </contour>
  </outline>
</glyph>
<glyph name="ampersand" format="1">
  <advance width="706"/>
  <unicode hex="0026"/>
  <outline>
    <contour>
      <point x="228" y="-12" type="curve" smooth="yes"/>
      <point x="396" y="-12"/>
      <point x="524" y="130"/>
      <point x="644" y="313" type="curve"/>
      <point x="583" y="348" type="line"/>
      <point x="489" y="187"/>
      <point x="362" y="55"/>
      <point x="234" y="55" type="curve" smooth="yes"/>
      <point x="168" y="55"/>
      <point x="118" y="90"/>
      <point x="118" y="152" type="curve" smooth="yes"/>
      <point x="118" y="242"/>
      <point x="202" y="308"/>
      <point x="320" y="347" type="curve" smooth="yes"/>
      <point x="447" y="394"/>
      <point x="559" y="441"/>
      <point x="559" y="562" type="curve" smooth="yes"/>
      <point x="559" y="637"/>
      <point x="505" y="695"/>
      <point x="423" y="695" type="curve" smooth="yes"/>
      <point x="313" y="695"/>
      <point x="217" y="614"/>
      <point x="217" y="498" type="curve" smooth="yes"/>
      <point x="217" y="452"/>
      <point x="235" y="408"/>
      <point x="267" y="358" type="curve" smooth="yes"/>
      <point x="328" y="263"/>
      <point x="385" y="179"/>
      <point x="526" y="-5" type="curve"/>
      <point x="600" y="24" type="line"/>
      <point x="468" y="196"/>
      <point x="401" y="282"/>
      <point x="333" y="383" type="curve" smooth="yes"/>
      <point x="301" y="430"/>
      <point x="291" y="471"/>
      <point x="291" y="505" type="curve" smooth="yes"/>
      <point x="291" y="575"/>
      <point x="349" y="628"/>
      <point x="420" y="628" type="curve" smooth="yes"/>
      <point x="461" y="628"/>
      <point x="485" y="600"/>
      <point x="485" y="561" type="curve" smooth="yes"/>
      <point x="485" y="471"/>
      <point x="390" y="435"/>
      <point x="277" y="398" type="curve" smooth="yes"/>
      <point x="145" y="351"/>
      <point x="44" y="274"/>
      <point x="44" y="144" type="curve" smooth="yes"/>
      <point x="44" y="47"/>
      <point x="120" y="-12"/>
    </contour>
  </outline>
</glyph>
<glyph name="quotesingle" format="1">
  <advance width="278"/>
  <unicode hex="0027"/>
  <outline>
    <contour>
      <point x="154" y="429" type="curve"/>
      <point x="198" y="429" type="line"/>
      <point x="215" y="478"/>
      <point x="264" y="626"/>
      <point x="264" y="638" type="curve" smooth="yes"/>
      <point x="264" y="659"/>
      <point x="249" y="675"/>
      <point x="227" y="675" type="curve" smooth="yes"/>
      <point x="170" y="675"/>
      <point x="165" y="613"/>
      <point x="161" y="544" type="curve" smooth="yes"/>
      <point x="158" y="504"/>
      <point x="156" y="461"/>
    </contour>
  </outline>
</glyph>
<glyph name="parenleft" format="1">
  <advance width="329"/>
  <unicode hex="0028"/>
  <outline>
    <contour>
      <point x="176" y="-168" type="curve"/>
      <point x="221" y="-129" type="line"/>
      <point x="156" y="-46"/>
      <point x="121" y="40"/>
      <point x="121" y="145" type="curve" smooth="yes"/>
      <point x="121" y="350"/>
      <point x="223" y="518"/>
      <point x="387" y="656" type="curve"/>
      <point x="351" y="702" type="line"/>
      <point x="166" y="569"/>
      <point x="43" y="369"/>
      <point x="43" y="155" type="curve" smooth="yes"/>
      <point x="43" y="29"/>
      <point x="90" y="-82"/>
    </contour>
  </outline>
</glyph>
<glyph name="parenright" format="1">
  <advance width="328"/>
  <unicode hex="0029"/>
  <outline>
    <contour>
      <point x="-20" y="-172" type="line"/>
      <point x="165" y="-39"/>
      <point x="288" y="162"/>
      <point x="288" y="376" type="curve" smooth="yes"/>
      <point x="288" y="502"/>
      <point x="241" y="612"/>
      <point x="156" y="698" type="curve"/>
      <point x="111" y="660" type="line"/>
      <point x="175" y="576"/>
      <point x="210" y="491"/>
      <point x="210" y="385" type="curve" smooth="yes"/>
      <point x="210" y="185"/>
      <point x="112" y="15"/>
      <point x="-55" y="-125" type="curve"/>
    </contour>
  </outline>
</glyph>
<glyph name="asterisk" format="1">
  <advance width="462"/>
  <unicode hex="002A"/>
  <outline>
    <contour>
      <point x="255" y="376" type="curve" smooth="yes"/>
      <point x="269" y="376"/>
      <point x="282" y="386"/>
      <point x="284" y="398" type="curve" smooth="yes"/>
      <point x="293" y="440"/>
      <point x="291" y="481"/>
      <point x="294" y="523" type="curve"/>
      <point x="323" y="498"/>
      <point x="347" y="468"/>
      <point x="378" y="447" type="curve" smooth="yes"/>
      <point x="387" y="441"/>
      <point x="403" y="446"/>
      <point x="413" y="458" type="curve" smooth="yes"/>
      <point x="422" y="470"/>
      <point x="421" y="484"/>
      <point x="412" y="490" type="curve" smooth="yes"/>
      <point x="381" y="511"/>
      <point x="342" y="522"/>
      <point x="307" y="539" type="curve"/>
      <point x="349" y="556"/>
      <point x="392" y="567"/>
      <point x="433" y="588" type="curve" smooth="yes"/>
      <point x="444" y="594"/>
      <point x="451" y="608"/>
      <point x="446" y="620" type="curve" smooth="yes"/>
      <point x="442" y="632"/>
      <point x="428" y="637"/>
      <point x="417" y="631" type="curve" smooth="yes"/>
      <point x="376" y="610"/>
      <point x="340" y="580"/>
      <point x="301" y="555" type="curve"/>
      <point x="315" y="597"/>
      <point x="334" y="638"/>
      <point x="343" y="680" type="curve" smooth="yes"/>
      <point x="345" y="692"/>
      <point x="336" y="702"/>
      <point x="322" y="702" type="curve" smooth="yes"/>
      <point x="308" y="702"/>
      <point x="295" y="692"/>
      <point x="293" y="680" type="curve" smooth="yes"/>
      <point x="284" y="638"/>
      <point x="287" y="597"/>
      <point x="283" y="555" type="curve"/>
      <point x="254" y="580"/>
      <point x="230" y="610"/>
      <point x="199" y="631" type="curve" smooth="yes"/>
      <point x="190" y="637"/>
      <point x="174" y="632"/>
      <point x="164" y="620" type="curve" smooth="yes"/>
      <point x="155" y="608"/>
      <point x="156" y="594"/>
      <point x="165" y="588" type="curve" smooth="yes"/>
      <point x="196" y="567"/>
      <point x="235" y="556"/>
      <point x="271" y="539" type="curve"/>
      <point x="228" y="522"/>
      <point x="185" y="511"/>
      <point x="144" y="490" type="curve" smooth="yes"/>
      <point x="133" y="484"/>
      <point x="126" y="470"/>
      <point x="131" y="458" type="curve" smooth="yes"/>
      <point x="135" y="446"/>
      <point x="149" y="441"/>
      <point x="160" y="447" type="curve" smooth="yes"/>
      <point x="201" y="468"/>
      <point x="237" y="498"/>
      <point x="276" y="523" type="curve"/>
      <point x="263" y="481"/>
      <point x="243" y="440"/>
      <point x="234" y="398" type="curve" smooth="yes"/>
      <point x="232" y="386"/>
      <point x="241" y="376"/>
    </contour>
  </outline>
</glyph>
<glyph name="comma" format="1">
  <advance width="315"/>
  <unicode hex="002C"/>
  <outline>
    <contour>
      <point x="61" y="-135" type="line"/>
      <point x="121" y="-75"/>
      <point x="169" y="-25"/>
      <point x="169" y="35" type="curve" smooth="yes"/>
      <point x="169" y="71"/>
      <point x="151" y="96"/>
      <point x="117" y="96" type="curve" smooth="yes"/>
      <point x="87" y="96"/>
      <point x="57" y="73"/>
      <point x="57" y="36" type="curve" smooth="yes"/>
      <point x="57" y="9"/>
      <point x="76" y="-9"/>
      <point x="101" y="-9" type="curve"/>
      <point x="84" y="-40"/>
      <point x="60" y="-72"/>
      <point x="26" y="-103" type="curve"/>
    </contour>
  </outline>
</glyph>
<glyph name="hyphen" format="1">
  <advance width="432"/>
  <unicode hex="002D"/>
  <outline>
    <contour>
      <point x="81" y="235" type="line"/>
      <point x="340" y="235" type="line"/>
      <point x="356" y="308" type="line"/>
      <point x="97" y="308" type="line"/>
    </contour>
  </outline>
</glyph>
<glyph name="period" format="1">
  <advance width="323"/>
  <unicode hex="002E"/>
  <outline>
    <contour>
      <point x="111" y="-12" type="curve" smooth="yes"/>
      <point x="142" y="-12"/>
      <point x="170" y="17"/>
      <point x="170" y="49" type="curve" smooth="yes"/>
      <point x="170" y="75"/>
      <point x="151" y="96"/>
      <point x="123" y="96" type="curve" smooth="yes"/>
      <point x="93" y="96"/>
      <point x="63" y="72"/>
      <point x="63" y="36" type="curve" smooth="yes"/>
      <point x="63" y="9"/>
      <point x="82" y="-12"/>
    </contour>
  </outline>
</glyph>
<glyph name="slash" format="1">
  <advance width="438"/>
  <unicode hex="002F"/>
  <outline>
    <contour>
      <point x="-69" y="-74" type="line"/>
      <point x="18" y="-74" type="line"/>
      <point x="539" y="743" type="line"/>
      <point x="452" y="743" type="line"/>
    </contour>
  </outline>
</glyph>
<glyph name="two" format="1">
  <advance width="566"/>
  <unicode hex="0032"/>
  <outline>
    <contour>
      <point x="-18" y="0" type="line"/>
      <point x="455" y="0" type="line"/>
      <point x="471" y="74" type="line"/>
      <point x="123" y="74" type="line"/>
      <point x="337" y="228" type="line" smooth="yes"/>
      <point x="456" y="316"/>
      <point x="556" y="411"/>
      <point x="556" y="535" type="curve" smooth="yes"/>
      <point x="556" y="636"/>
      <point x="476" y="699"/>
      <point x="369" y="699" type="curve" smooth="yes"/>
      <point x="264" y="699"/>
      <point x="178" y="651"/>
      <point x="104" y="570" type="curve"/>
      <point x="153" y="520" type="line"/>
      <point x="212" y="584"/>
      <point x="280" y="629"/>
      <point x="363" y="629" type="curve" smooth="yes"/>
      <point x="425" y="629"/>
      <point x="477" y="593"/>
      <point x="477" y="529" type="curve" smooth="yes"/>
      <point x="477" y="438"/>
      <point x="386" y="352"/>
      <point x="289" y="281" type="curve" smooth="yes"/>
      <point x="-6" y="65" type="line"/>
    </contour>
  </outline>
</glyph>
<glyph name="three" format="1">
  <advance width="581"/>
  <unicode hex="0033"/>
  <outline>
    <contour>
      <point x="228" y="-12" type="curve" smooth="yes"/>
      <point x="374" y="-12"/>
      <point x="506" y="82"/>
      <point x="506" y="216" type="curve" smooth="yes"/>
      <point x="506" y="295"/>
      <point x="446" y="337"/>
      <point x="389" y="350" type="curve"/>
      <point x="486" y="377"/>
      <point x="559" y="446"/>
      <point x="559" y="544" type="curve" smooth="yes"/>
      <point x="559" y="637"/>
      <point x="481" y="699"/>
      <point x="362" y="699" type="curve" smooth="yes"/>
      <point x="258" y="699"/>
      <point x="173" y="649"/>
      <point x="107" y="580" type="curve"/>
      <point x="152" y="529" type="line"/>
      <point x="212" y="588"/>
      <point x="276" y="628"/>
      <point x="355" y="628" type="curve" smooth="yes"/>
      <point x="429" y="628"/>
      <point x="479" y="589"/>
      <point x="479" y="532" type="curve" smooth="yes"/>
      <point x="479" y="442"/>
      <point x="387" y="382"/>
      <point x="286" y="383" type="curve" smooth="yes"/>
      <point x="215" y="384" type="line"/>
      <point x="200" y="312" type="line"/>
      <point x="276" y="312" type="line" smooth="yes"/>
      <point x="372" y="312"/>
      <point x="429" y="282"/>
      <point x="429" y="220" type="curve" smooth="yes"/>
      <point x="429" y="129"/>
      <point x="338" y="59"/>
      <point x="232" y="59" type="curve" smooth="yes"/>
      <point x="151" y="59"/>
      <point x="93" y="97"/>
      <point x="60" y="155" type="curve"/>
      <point x="-1" y="108" type="line"/>
      <point x="36" y="42"/>
      <point x="113" y="-12"/>
    </contour>
  </outline>
</glyph>
<glyph name="four" format="1">
  <advance width="587"/>
  <unicode hex="0034"/>
  <outline>
    <contour>
      <point x="326" y="0" type="line"/>
      <point x="404" y="0" type="line"/>
      <point x="439" y="167" type="line"/>
      <point x="542" y="167" type="line"/>
      <point x="557" y="238" type="line"/>
      <point x="454" y="238" type="line"/>
      <point x="547" y="687" type="line"/>
      <point x="456" y="687" type="line"/>
      <point x="21" y="232" type="line"/>
      <point x="19" y="167" type="line"/>
      <point x="361" y="167" type="line"/>
    </contour>
    <contour>
      <point x="113" y="238" type="line"/>
      <point x="451" y="593" type="line"/>
      <point x="376" y="238" type="line"/>
    </contour>
  </outline>
</glyph>
<glyph name="seven" format="1">
  <advance width="516"/>
  <unicode hex="0037"/>
  <outline>
    <contour>
      <point x="47" y="0" type="line"/>
      <point x="138" y="0" type="line"/>
      <point x="565" y="628" type="line"/>
      <point x="576" y="687" type="line"/>
      <point x="111" y="687" type="line"/>
      <point x="96" y="613" type="line"/>
      <point x="467" y="613" type="line"/>
    </contour>
  </outline>
</glyph>
<glyph name="eight" format="1">
  <advance width="622"/>
  <unicode hex="0038"/>
  <outline>
    <contour>
      <point x="259" y="-12" type="curve" smooth="yes"/>
      <point x="405" y="-12"/>
      <point x="547" y="74"/>
      <point x="547" y="206" type="curve" smooth="yes"/>
      <point x="547" y="278"/>
      <point x="496" y="329"/>
      <point x="430" y="353" type="curve"/>
      <point x="526" y="386"/>
      <point x="601" y="450"/>
      <point x="601" y="544" type="curve" smooth="yes"/>
      <point x="601" y="640"/>
      <point x="509" y="699"/>
      <point x="396" y="699" type="curve" smooth="yes"/>
      <point x="268" y="699"/>
      <point x="129" y="619"/>
      <point x="129" y="490" type="curve" smooth="yes"/>
      <point x="129" y="426"/>
      <point x="172" y="382"/>
      <point x="232" y="357" type="curve"/>
      <point x="126" y="325"/>
      <point x="40" y="252"/>
      <point x="40" y="149" type="curve" smooth="yes"/>
      <point x="40" y="51"/>
      <point x="130" y="-12"/>
    </contour>
    <contour>
      <point x="263" y="59" type="curve" smooth="yes"/>
      <point x="180" y="59"/>
      <point x="120" y="98"/>
      <point x="120" y="159" type="curve" smooth="yes"/>
      <point x="120" y="248"/>
      <point x="238" y="316"/>
      <point x="328" y="318" type="curve"/>
      <point x="391" y="316"/>
      <point x="470" y="278"/>
      <point x="470" y="211" type="curve" smooth="yes"/>
      <point x="470" y="123"/>
      <point x="366" y="59"/>
    </contour>
    <contour>
      <point x="331" y="386" type="curve"/>
      <point x="275" y="390"/>
      <point x="205" y="420"/>
      <point x="205" y="483" type="curve" smooth="yes"/>
      <point x="205" y="564"/>
      <point x="298" y="628"/>
      <point x="393" y="628" type="curve" smooth="yes"/>
      <point x="468" y="628"/>
      <point x="521" y="590"/>
      <point x="521" y="534" type="curve" smooth="yes"/>
      <point x="521" y="450"/>
      <point x="417" y="391"/>
    </contour>
  </outline>
</glyph>
<glyph name="colon" format="1">
  <advance width="306"/>
  <unicode hex="003A"/>
  <outline>
    <contour>
      <point x="189" y="403" type="curve" smooth="yes"/>
      <point x="219" y="403"/>
      <point x="247" y="432"/>
      <point x="247" y="464" type="curve" smooth="yes"/>
      <point x="247" y="490"/>
      <point x="228" y="511"/>
      <point x="200" y="511" type="curve" smooth="yes"/>
      <point x="170" y="511"/>
      <point x="140" y="487"/>
      <point x="140" y="451" type="curve" smooth="yes"/>
      <point x="140" y="424"/>
      <point x="159" y="403"/>
    </contour>
    <contour>
      <point x="102" y="-12" type="curve" smooth="yes"/>
      <point x="133" y="-12"/>
      <point x="161" y="17"/>
      <point x="161" y="49" type="curve" smooth="yes"/>
      <point x="161" y="75"/>
      <point x="142" y="96"/>
      <point x="114" y="96" type="curve" smooth="yes"/>
      <point x="84" y="96"/>
      <point x="54" y="72"/>
      <point x="54" y="36" type="curve" smooth="yes"/>
      <point x="54" y="9"/>
      <point x="73" y="-12"/>
    </contour>
  </outline>
</glyph>
<glyph name="less" format="1">
  <advance width="593"/>
  <unicode hex="003C"/>
  <outline>
    <contour>
      <point x="479" y="88" type="line"/>
      <point x="493" y="159" type="line"/>
      <point x="151" y="344" type="line"/>
      <point x="571" y="529" type="line"/>
      <point x="585" y="599" type="line"/>
      <point x="83" y="373" type="line"/>
      <point x="71" y="314" type="line"/>
    </contour>
  </outline>
</glyph>
<glyph name="at" format="1">
  <advance width="942"/>
  <unicode hex="0040"/>
  <outline>
    <contour>
      <point x="383" y="-116" type="curve" smooth="yes"/>
      <point x="465" y="-116"/>
      <point x="551" y="-92"/>
      <point x="634" y="-47" type="curve"/>
      <point x="621" y="-20" type="line"/>
      <point x="546" y="-60"/>
      <point x="468" y="-81"/>
      <point x="393" y="-81" type="curve" smooth="yes"/>
      <point x="232" y="-81"/>
      <point x="111" y="36"/>
      <point x="111" y="193" type="curve" smooth="yes"/>
      <point x="111" y="448"/>
      <point x="309" y="639"/>
      <point x="574" y="639" type="curve" smooth="yes"/>
      <point x="735" y="639"/>
      <point x="855" y="527"/>
      <point x="855" y="378" type="curve" smooth="yes"/>
      <point x="855" y="269"/>
      <point x="785" y="125"/>
      <point x="684" y="125" type="curve" smooth="yes"/>
      <point x="650" y="125"/>
      <point x="630" y="142"/>
      <point x="630" y="173" type="curve" smooth="yes"/>
      <point x="630" y="207"/>
      <point x="686" y="333"/>
      <point x="746" y="481" type="curve"/>
      <point x="680" y="486" type="line"/>
      <point x="653" y="420" type="line"/>
      <point x="640" y="463"/>
      <point x="604" y="501"/>
      <point x="533" y="501" type="curve" smooth="yes"/>
      <point x="393" y="501"/>
      <point x="243" y="349"/>
      <point x="243" y="208" type="curve" smooth="yes"/>
      <point x="243" y="128"/>
      <point x="296" y="78"/>
      <point x="378" y="78" type="curve" smooth="yes"/>
      <point x="447" y="78"/>
      <point x="511" y="116"/>
      <point x="558" y="164" type="curve"/>
      <point x="558" y="111"/>
      <point x="593" y="78"/>
      <point x="655" y="78" type="curve" smooth="yes"/>
      <point x="789" y="78"/>
      <point x="892" y="237"/>
      <point x="892" y="385" type="curve" smooth="yes"/>
      <point x="892" y="551"/>
      <point x="760" y="675"/>
      <point x="584" y="675" type="curve" smooth="yes"/>
      <point x="291" y="675"/>
      <point x="72" y="466"/>
      <point x="72" y="187" type="curve" smooth="yes"/>
      <point x="72" y="14"/>
      <point x="205" y="-116"/>
    </contour>
    <contour>
      <point x="408" y="137" type="curve" smooth="yes"/>
      <point x="351" y="137"/>
      <point x="318" y="170"/>
      <point x="318" y="223" type="curve" smooth="yes"/>
      <point x="318" y="329"/>
      <point x="424" y="442"/>
      <point x="529" y="442" type="curve" smooth="yes"/>
      <point x="588" y="442"/>
      <point x="617" y="413"/>
      <point x="617" y="365" type="curve" smooth="yes"/>
      <point x="617" y="259"/>
      <point x="520" y="137"/>
    </contour>
  </outline>
</glyph>
<glyph name="A" format="1">
  <advance width="741"/>
  <unicode hex="0041"/>
  <outline>
    <contour>
      <point x="138" y="156" type="line"/>
      <point x="567" y="156" type="line"/>
      <point x="582" y="230" type="line"/>
      <point x="153" y="230" type="line"/>
    </contour>
    <component base="V" xScale="-1" yScale="-1" xOffset="776" yOffset="687"/>
    <contour>
      <point x="662" y="0" type="move" name="bottom"/>
    </contour>
    <contour>
      <point x="459" y="687" type="move" name="top"/>
    </contour>
  </outline>
</glyph>
<glyph name="B" format="1">
  <advance width="702"/>
  <unicode hex="0042"/>
  <outline>
    <contour>
      <point x="55" y="0" type="line"/>
      <point x="385" y="0" type="line" smooth="yes"/>
      <point x="517" y="0"/>
      <point x="628" y="101"/>
      <point x="628" y="220" type="curve" smooth="yes"/>
      <point x="628" y="273"/>
      <point x="590" y="332"/>
      <point x="537" y="362" type="curve"/>
      <point x="621" y="405"/>
      <point x="670" y="474"/>
      <point x="670" y="547" type="curve" smooth="yes"/>
      <point x="670" y="629"/>
      <point x="604" y="687"/>
      <point x="511" y="687" type="curve" smooth="yes"/>
      <point x="198" y="687" type="line"/>
    </contour>
    <contour>
      <point x="148" y="71" type="line"/>
      <point x="201" y="325" type="line"/>
      <point x="433" y="325" type="line" smooth="yes"/>
      <point x="503" y="325"/>
      <point x="553" y="285"/>
      <point x="553" y="229" type="curve" smooth="yes"/>
      <point x="553" y="143"/>
      <point x="471" y="71"/>
      <point x="374" y="71" type="curve" smooth="yes"/>
    </contour>
    <contour>
      <point x="216" y="396" type="line"/>
      <point x="262" y="616" type="line"/>
      <point x="481" y="616" type="line" smooth="yes"/>
      <point x="544" y="616"/>
      <point x="589" y="582"/>
      <point x="589" y="533" type="curve" smooth="yes"/>
      <point x="589" y="459"/>
      <point x="516" y="396"/>
      <point x="430" y="396" type="curve" smooth="yes"/>
    </contour>
  </outline>
</glyph>
<glyph name="C" format="1">
  <advance width="696"/>
  <unicode hex="0043"/>
  <outline>
    <contour>
      <point x="357" y="-12" type="curve" smooth="yes"/>
      <point x="440" y="-12"/>
      <point x="551" y="31"/>
      <point x="624" y="91" type="curve"/>
      <point x="579" y="149" type="line"/>
      <point x="520" y="97"/>
      <point x="434" y="60"/>
      <point x="371" y="60" type="curve" smooth="yes"/>
      <point x="250" y="60"/>
      <point x="148" y="161"/>
      <point x="148" y="280" type="curve" smooth="yes"/>
      <point x="148" y="468"/>
      <point x="304" y="627"/>
      <point x="490" y="627" type="curve" smooth="yes"/>
      <point x="556" y="627"/>
      <point x="628" y="592"/>
      <point x="665" y="542" type="curve"/>
      <point x="726" y="592" type="line"/>
      <point x="676" y="655"/>
      <point x="585" y="699"/>
      <point x="505" y="699" type="curve" smooth="yes"/>
      <point x="269" y="699"/>
      <point x="70" y="507"/>
      <point x="70" y="280" type="curve" smooth="yes"/>
      <point x="70" y="121"/>
      <point x="201" y="-12"/>
    </contour>
    <contour>
      <point x="359" y="0" type="move" name="bottom"/>
    </contour>
    <contour>
      <point x="499" y="687" type="move" name="top"/>
    </contour>
  </outline>
</glyph>
<glyph name="D" format="1">
  <advance width="769"/>
  <unicode hex="0044"/>
  <outline>
    <contour>
      <point x="55" y="0" type="line"/>
      <point x="290" y="0" type="line" smooth="yes"/>
      <point x="533" y="0"/>
      <point x="738" y="189"/>
      <point x="738" y="414" type="curve" smooth="yes"/>
      <point x="738" y="574"/>
      <point x="610" y="687"/>
      <point x="428" y="687" type="curve" smooth="yes"/>
      <point x="198" y="687" type="line"/>
    </contour>
    <contour>
      <point x="148" y="71" type="line"/>
      <point x="262" y="616" type="line"/>
      <point x="418" y="616" type="line" smooth="yes"/>
      <point x="559" y="616"/>
      <point x="659" y="530"/>
      <point x="659" y="409" type="curve" smooth="yes"/>
      <point x="659" y="226"/>
      <point x="494" y="71"/>
      <point x="299" y="71" type="curve" smooth="yes"/>
    </contour>
    <contour>
      <point x="428" y="687" type="move" name="top"/>
    </contour>
  </outline>
</glyph>
<glyph name="E" format="1">
  <advance width="658"/>
  <unicode hex="0045"/>
  <outline>
    <contour>
      <point x="55" y="0" type="line"/>
      <point x="548" y="0" type="line"/>
      <point x="564" y="74" type="line"/>
      <point x="131" y="74" type="line"/>
      <point x="147" y="54" type="line"/>
      <point x="203" y="333" type="line"/>
      <point x="179" y="313" type="line"/>
      <point x="573" y="313" type="line"/>
      <point x="588" y="387" type="line"/>
      <point x="196" y="387" type="line"/>
      <point x="212" y="367" type="line"/>
      <point x="265" y="633" type="line"/>
      <point x="241" y="613" type="line"/>
      <point x="676" y="613" type="line"/>
      <point x="691" y="687" type="line"/>
      <point x="198" y="687" type="line"/>
    </contour>
    <contour>
      <point x="198" y="687" type="move" name="ae_upper"/>
    </contour>
    <contour>
      <point x="548" y="0" type="move" name="bottom"/>
    </contour>
    <contour>
      <point x="450" y="687" type="move" name="top"/>
    </contour>
  </outline>
</glyph>
<glyph name="G" format="1">
  <advance width="744"/>
  <unicode hex="0047"/>
  <outline>
    <contour>
      <point x="357" y="-12" type="curve" smooth="yes"/>
      <point x="446" y="-12"/>
      <point x="561" y="31"/>
      <point x="634" y="91" type="curve"/>
      <point x="589" y="149" type="line"/>
      <point x="530" y="97"/>
      <point x="440" y="60"/>
      <point x="371" y="60" type="curve" smooth="yes"/>
      <point x="250" y="60"/>
      <point x="148" y="161"/>
      <point x="148" y="280" type="curve" smooth="yes"/>
      <point x="148" y="468"/>
      <point x="304" y="627"/>
      <point x="490" y="627" type="curve" smooth="yes"/>
      <point x="562" y="627"/>
      <point x="638" y="592"/>
      <point x="675" y="542" type="curve"/>
      <point x="736" y="592" type="line"/>
      <point x="686" y="655"/>
      <point x="591" y="699"/>
      <point x="505" y="699" type="curve" smooth="yes"/>
      <point x="269" y="699"/>
      <point x="70" y="507"/>
      <point x="70" y="280" type="curve" smooth="yes"/>
      <point x="70" y="121"/>
      <point x="201" y="-12"/>
    </contour>
    <contour>
      <point x="556" y="91" type="line"/>
      <point x="634" y="91" type="line"/>
      <point x="690" y="360" type="line"/>
      <point x="415" y="360" type="line"/>
      <point x="399" y="286" type="line"/>
      <point x="627" y="286" type="line"/>
      <point x="604" y="327" type="line"/>
    </contour>
    <contour>
      <point x="356" y="0" type="move" name="bottom"/>
    </contour>
    <contour>
      <point x="496" y="687" type="move" name="top"/>
    </contour>
  </outline>
</glyph>
<glyph name="I" format="1">
  <advance width="296"/>
  <unicode hex="0049"/>
  <outline>
    <contour>
      <point x="55" y="0" type="line"/>
      <point x="133" y="0" type="line"/>
      <point x="276" y="687" type="line"/>
      <point x="198" y="687" type="line"/>
    </contour>
    <contour>
      <point x="133" y="0" type="move" name="bottom"/>
    </contour>
    <contour>
      <point x="237" y="687" type="move" name="top"/>
    </contour>
  </outline>
</glyph>
<glyph name="J" format="1">
  <advance width="546"/>
  <unicode hex="004A"/>
  <outline>
    <contour>
      <point x="176" y="-12" type="curve" smooth="yes"/>
      <point x="303" y="-12"/>
      <point x="412" y="85"/>
      <point x="441" y="221" type="curve" smooth="yes"/>
      <point x="538" y="687" type="line"/>
      <point x="460" y="687" type="line"/>
      <point x="365" y="227" type="line" smooth="yes"/>
      <point x="345" y="129"/>
      <point x="272" y="59"/>
      <point x="190" y="59" type="curve" smooth="yes"/>
      <point x="126" y="59"/>
      <point x="71" y="99"/>
      <point x="56" y="155" type="curve"/>
      <point x="-10" y="105" type="line"/>
      <point x="20" y="36"/>
      <point x="97" y="-12"/>
    </contour>
  </outline>
</glyph>
<glyph name="K" format="1">
  <advance width="679"/>
  <unicode hex="004B"/>
  <outline>
    <contour>
      <point x="55" y="0" type="line"/>
      <point x="133" y="0" type="line"/>
      <point x="177" y="206" type="line"/>
      <point x="310" y="320" type="line"/>
      <point x="504" y="0" type="line"/>
      <point x="602" y="0" type="line"/>
      <point x="373" y="373" type="line"/>
      <point x="728" y="687" type="line"/>
      <point x="623" y="687" type="line"/>
      <point x="196" y="307" type="line"/>
      <point x="276" y="687" type="line"/>
      <point x="198" y="687" type="line"/>
    </contour>
    <contour>
      <point x="310" y="0" type="move" name="bottom"/>
    </contour>
  </outline>
</glyph>
<glyph name="L" format="1">
  <advance width="587"/>
  <unicode hex="004C"/>
  <outline>
    <contour>
      <point x="55" y="0" type="line"/>
      <point x="508" y="0" type="line"/>
      <point x="524" y="74" type="line"/>
      <point x="127" y="74" type="line"/>
      <point x="145" y="50" type="line"/>
      <point x="276" y="687" type="line"/>
      <point x="198" y="687" type="line"/>
    </contour>
    <contour>
      <point x="237" y="687" type="move" name="top"/>
    </contour>
  </outline>
</glyph>
<glyph name="N" format="1">
  <advance width="800"/>
  <unicode hex="004E"/>
  <outline>
    <contour>
      <point x="55" y="0" type="line"/>
      <point x="133" y="0" type="line"/>
      <point x="251" y="559" type="line"/>
      <point x="561" y="0" type="line"/>
      <point x="637" y="0" type="line"/>
      <point x="780" y="687" type="line"/>
      <point x="702" y="687" type="line"/>
      <point x="585" y="128" type="line"/>
      <point x="275" y="687" type="line"/>
      <point x="198" y="687" type="line"/>
    </contour>
    <contour>
      <point x="346" y="0" type="move" name="bottom"/>
    </contour>
    <contour>
      <point x="488" y="687" type="move" name="top"/>
    </contour>
  </outline>
</glyph>
<glyph name="O" format="1">
  <advance width="823"/>
  <unicode hex="004F"/>
  <outline>
    <contour>
      <point x="356" y="-12" type="curve" smooth="yes"/>
      <point x="594" y="-12"/>
      <point x="788" y="178"/>
      <point x="788" y="410" type="curve" smooth="yes"/>
      <point x="788" y="581"/>
      <point x="672" y="699"/>
      <point x="503" y="699" type="curve" smooth="yes"/>
      <point x="265" y="699"/>
      <point x="71" y="509"/>
      <point x="71" y="277" type="curve" smooth="yes"/>
      <point x="71" y="106"/>
      <point x="187" y="-12"/>
    </contour>
    <contour>
      <point x="371" y="60" type="curve" smooth="yes"/>
      <point x="240" y="60"/>
      <point x="150" y="151"/>
      <point x="150" y="283" type="curve" smooth="yes"/>
      <point x="150" y="472"/>
      <point x="303" y="627"/>
      <point x="489" y="627" type="curve" smooth="yes"/>
      <point x="619" y="627"/>
      <point x="709" y="537"/>
      <point x="709" y="407" type="curve" smooth="yes"/>
      <point x="709" y="216"/>
      <point x="557" y="60"/>
    </contour>
    <contour>
      <point x="512" y="687" type="move" name="top"/>
    </contour>
  </outline>
</glyph>
<glyph name="S" format="1">
  <advance width="614"/>
  <unicode hex="0053"/>
  <outline>
    <contour>
      <point x="267" y="-11" type="curve" smooth="yes"/>
      <point x="432" y="-11"/>
      <point x="548" y="86"/>
      <point x="548" y="222" type="curve" smooth="yes"/>
      <point x="548" y="305"/>
      <point x="493" y="352"/>
      <point x="355" y="385" type="curve" smooth="yes"/>
      <point x="243" y="414"/>
      <point x="198" y="442"/>
      <point x="198" y="486" type="curve" smooth="yes"/>
      <point x="198" y="570"/>
      <point x="273" y="629"/>
      <point x="379" y="629" type="curve" smooth="yes"/>
      <point x="440" y="629"/>
      <point x="513" y="593"/>
      <point x="554" y="543" type="curve"/>
      <point x="611" y="600" type="line"/>
      <point x="558" y="659"/>
      <point x="466" y="700"/>
      <point x="387" y="700" type="curve" smooth="yes"/>
      <point x="229" y="700"/>
      <point x="118" y="603"/>
      <point x="118" y="467" type="curve" smooth="yes"/>
      <point x="118" y="388"/>
      <point x="173" y="344"/>
      <point x="312" y="311" type="curve" smooth="yes"/>
      <point x="423" y="283"/>
      <point x="467" y="253"/>
      <point x="467" y="207" type="curve" smooth="yes"/>
      <point x="467" y="121"/>
      <point x="387" y="60"/>
      <point x="273" y="60" type="curve" smooth="yes"/>
      <point x="200" y="60"/>
      <point x="117" y="100"/>
      <point x="72" y="157" type="curve"/>
      <point x="14" y="100" type="line"/>
      <point x="68" y="35"/>
      <point x="172" y="-11"/>
    </contour>
    <contour>
      <point x="259" y="0" type="move" name="bottom"/>
    </contour>
    <contour>
      <point x="398" y="687" type="move" name="top"/>
    </contour>
  </outline>
</glyph>
<glyph name="T" format="1">
  <advance width="590"/>
  <unicode hex="0054"/>
  <outline>
    <contour>
      <point x="202" y="0" type="line"/>
      <point x="280" y="0" type="line"/>
      <point x="408" y="613" type="line"/>
      <point x="639" y="613" type="line"/>
      <point x="654" y="687" type="line"/>
      <point x="114" y="687" type="line"/>
      <point x="99" y="613" type="line"/>
      <point x="330" y="613" type="line"/>
    </contour>
    <contour>
      <point x="233" y="0" type="move" name="bottom"/>
    </contour>
    <contour>
      <point x="384" y="687" type="move" name="top"/>
    </contour>
  </outline>
</glyph>
<glyph name="X" format="1">
  <advance width="680"/>
  <unicode hex="0058"/>
  <outline>
    <contour>
      <point x="502" y="0" type="line"/>
      <point x="120" y="687" type="line"/>
      <point x="213" y="687" type="line"/>
      <point x="595" y="0" type="line"/>
    </contour>
    <contour>
      <point x="-26" y="0" type="line"/>
      <point x="643" y="687" type="line"/>
      <point x="741" y="687" type="line"/>
      <point x="72" y="0" type="line"/>
    </contour>
  </outline>
</glyph>
<glyph name="Z" format="1">
  <advance width="615"/>
  <unicode hex="005A"/>
  <outline>
    <contour>
      <point x="-8" y="0" type="line"/>
      <point x="516" y="0" type="line"/>
      <point x="532" y="74" type="line"/>
      <point x="114" y="74" type="line"/>
      <point x="643" y="625" type="line"/>
      <point x="655" y="687" type="line"/>
      <point x="141" y="687" type="line"/>
      <point x="126" y="613" type="line"/>
      <point x="532" y="613" type="line"/>
      <point x="3" y="62" type="line"/>
    </contour>
    <contour>
      <point x="398" y="687" type="move" name="top"/>
    </contour>
  </outline>
</glyph>
<glyph name="asciicircum" format="1">
  <advance width="508"/>
  <unicode hex="005E"/>
  <outline>
    <contour>
      <point x="95" y="413" type="line"/>
      <point x="161" y="413" type="line"/>
      <point x="335" y="632" type="line"/>
      <point x="414" y="413" type="line"/>
      <point x="477" y="413" type="line"/>
      <point x="373" y="687" type="line"/>
      <point x="314" y="687" type="line"/>
    </contour>
  </outline>
</glyph>
<glyph name="c" format="1">
  <advance width="521"/>
  <unicode hex="0063"/>
  <outline>
    <contour>
      <point x="253" y="-12" type="curve" smooth="yes"/>
      <point x="329" y="-12"/>
      <point x="397" y="13"/>
      <point x="459" y="65" type="curve"/>
      <point x="414" y="120" type="line"/>
      <point x="367" y="76"/>
      <point x="318" y="55"/>
      <point x="266" y="55" type="curve" smooth="yes"/>
      <point x="185" y="55"/>
      <point x="116" y="127"/>
      <point x="116" y="213" type="curve" smooth="yes"/>
      <point x="116" y="348"/>
      <point x="223" y="462"/>
      <point x="351" y="462" type="curve" smooth="yes"/>
      <point x="399" y="462"/>
      <point x="450" y="438"/>
      <point x="474" y="404" type="curve"/>
      <point x="533" y="451" type="line"/>
      <point x="494" y="497"/>
      <point x="425" y="529"/>
      <point x="365" y="529" type="curve" smooth="yes"/>
      <point x="187" y="529"/>
      <point x="38" y="382"/>
      <point x="38" y="208" type="curve" smooth="yes"/>
      <point x="38" y="89"/>
      <point x="136" y="-12"/>
    </contour>
    <contour>
      <point x="250" y="0" type="move" name="bottom"/>
    </contour>
    <contour>
      <point x="351" y="517" type="move" name="top"/>
    </contour>
  </outline>
</glyph>
<glyph name="f" format="1">
  <advance width="315"/>
  <unicode hex="0066"/>
  <outline>
    <contour>
      <point x="51" y="0" type="line"/>
      <point x="126" y="0" type="line"/>
      <point x="248" y="585" type="line" smooth="yes"/>
      <point x="256" y="623"/>
      <point x="290" y="653"/>
      <point x="326" y="653" type="curve" smooth="yes"/>
      <point x="343" y="653"/>
      <point x="362" y="646"/>
      <point x="370" y="634" type="curve"/>
      <point x="415" y="685" type="line"/>
      <point x="391" y="706"/>
      <point x="359" y="720"/>
      <point x="322" y="720" type="curve" smooth="yes"/>
      <point x="250" y="720"/>
      <point x="190" y="668"/>
      <point x="174" y="591" type="curve" smooth="yes"/>
    </contour>
    <contour>
      <point x="64" y="450" type="line"/>
      <point x="347" y="450" type="line"/>
      <point x="361" y="517" type="line"/>
      <point x="78" y="517" type="line"/>
    </contour>
  </outline>
</glyph>
<glyph name="k" format="1">
  <advance width="547"/>
  <unicode hex="006B"/>
  <outline>
    <contour>
      <point x="33" y="0" type="line"/>
      <point x="108" y="0" type="line"/>
      <point x="137" y="138" type="line"/>
      <point x="248" y="229" type="line"/>
      <point x="379" y="0" type="line"/>
      <point x="470" y="0" type="line"/>
      <point x="310" y="280" type="line"/>
      <point x="593" y="517" type="line"/>
      <point x="495" y="517" type="line"/>
      <point x="157" y="234" type="line"/>
      <point x="253" y="699" type="line"/>
      <point x="178" y="699" type="line"/>
    </contour>
    <contour>
      <point x="228" y="0" type="move" name="bottom"/>
    </contour>
  </outline>
</glyph>
<glyph name="s" format="1">
  <advance width="476"/>
  <unicode hex="0073"/>
  <outline>
    <contour>
      <point x="195" y="-12" type="curve" smooth="yes"/>
      <point x="313" y="-12"/>
      <point x="413" y="70"/>
      <point x="413" y="168" type="curve" smooth="yes"/>
      <point x="413" y="226"/>
      <point x="372" y="262"/>
      <point x="268" y="294" type="curve" smooth="yes"/>
      <point x="188" y="324"/>
      <point x="156" y="345"/>
      <point x="156" y="369" type="curve" smooth="yes"/>
      <point x="156" y="423"/>
      <point x="210" y="462"/>
      <point x="286" y="462" type="curve" smooth="yes"/>
      <point x="331" y="462"/>
      <point x="382" y="445"/>
      <point x="422" y="415" type="curve"/>
      <point x="466" y="469" type="line"/>
      <point x="415" y="507"/>
      <point x="349" y="529"/>
      <point x="289" y="529" type="curve" smooth="yes"/>
      <point x="167" y="529"/>
      <point x="80" y="457"/>
      <point x="80" y="354" type="curve" smooth="yes"/>
      <point x="80" y="298"/>
      <point x="123" y="263"/>
      <point x="230" y="232" type="curve" smooth="yes"/>
      <point x="306" y="207"/>
      <point x="337" y="185"/>
      <point x="337" y="155" type="curve" smooth="yes"/>
      <point x="337" y="101"/>
      <point x="273" y="55"/>
      <point x="198" y="55" type="curve" smooth="yes"/>
      <point x="145" y="55"/>
      <point x="86" y="78"/>
      <point x="40" y="118" type="curve"/>
      <point x="-7" y="67" type="line"/>
      <point x="46" y="17"/>
      <point x="121" y="-12"/>
    </contour>
    <contour>
      <point x="188" y="0" type="move" name="bottom"/>
    </contour>
    <contour>
      <point x="296" y="517" type="move" name="top"/>
    </contour>
  </outline>
</glyph>
<glyph name="t" format="1">
  <advance width="347"/>
  <unicode hex="0074"/>
  <outline>
    <contour>
      <point x="177" y="-12" type="curve" smooth="yes"/>
      <point x="210" y="-12"/>
      <point x="245" y="-2"/>
      <point x="277" y="19" type="curve"/>
      <point x="247" y="78" type="line"/>
      <point x="235" y="66"/>
      <point x="211" y="55"/>
      <point x="185" y="55" type="curve" smooth="yes"/>
      <point x="162" y="55"/>
      <point x="146" y="72"/>
      <point x="146" y="100" type="curve" smooth="yes"/>
      <point x="146" y="110"/>
      <point x="141" y="82"/>
      <point x="261" y="659" type="curve"/>
      <point x="186" y="659" type="line"/>
      <point x="77" y="138"/>
      <point x="71" y="121"/>
      <point x="71" y="92" type="curve" smooth="yes"/>
      <point x="71" y="31"/>
      <point x="112" y="-12"/>
    </contour>
    <contour>
      <point x="61" y="450" type="line"/>
      <point x="344" y="450" type="line"/>
      <point x="358" y="517" type="line"/>
      <point x="75" y="517" type="line"/>
    </contour>
    <contour>
      <point x="180" y="0" type="move" name="bottom"/>
    </contour>
  </outline>
</glyph>
<glyph name="x" format="1">
  <advance width="511"/>
  <unicode hex="0078"/>
  <outline>
    <contour>
      <point x="359" y="0" type="line"/>
      <point x="444" y="0" type="line"/>
      <point x="161" y="517" type="line"/>
      <point x="75" y="517" type="line"/>
    </contour>
    <contour>
      <point x="-43" y="0" type="line"/>
      <point x="48" y="0" type="line"/>
      <point x="546" y="517" type="line"/>
      <point x="456" y="517" type="line"/>
    </contour>
  </outline>
</glyph>
<glyph name="y" format="1">
  <advance width="536"/>
  <unicode hex="0079"/>
  <outline>
    <contour>
      <point x="45" y="-180" type="curve" smooth="yes"/>
      <point x="112" y="-180"/>
      <point x="169" y="-149"/>
      <point x="223" y="-61" type="curve" smooth="yes"/>
      <point x="579" y="517" type="line"/>
      <point x="496" y="517" type="line"/>
      <point x="235" y="87" type="line"/>
      <point x="144" y="517" type="line"/>
      <point x="63" y="517" type="line"/>
      <point x="179" y="-2" type="line"/>
      <point x="134" y="-63" type="line"/>
      <point x="107" y="-99"/>
      <point x="81" y="-112"/>
      <point x="45" y="-112" type="curve" smooth="yes"/>
      <point x="27" y="-112"/>
      <point x="6" y="-109"/>
      <point x="-10" y="-100" type="curve"/>
      <point x="-36" y="-162" type="line"/>
      <point x="-14" y="-173"/>
      <point x="13" y="-180"/>
    </contour>
    <contour>
      <point x="325" y="517" type="move" name="top"/>
    </contour>
  </outline>
</glyph>
<glyph name="z" format="1">
  <advance width="477"/>
  <unicode hex="007A"/>
  <outline>
    <contour>
      <point x="-19" y="0" type="line"/>
      <point x="388" y="0" type="line"/>
      <point x="403" y="71" type="line"/>
      <point x="96" y="71" type="line"/>
      <point x="483" y="458" type="line"/>
      <point x="494" y="517" type="line"/>
      <point x="94" y="517" type="line"/>
      <point x="79" y="446" type="line"/>
      <point x="377" y="446" type="line"/>
      <point x="-8" y="59" type="line"/>
    </contour>
    <contour>
      <point x="298" y="517" type="move" name="top"/>
    </contour>
  </outline>
</glyph>
<glyph name="braceleft" format="1">
  <advance width="357"/>
  <unicode hex="007B"/>
  <outline>
    <contour>
      <point x="236" y="-166" type="curve"/>
      <point x="247" y="-113" type="line"/>
      <point x="157" y="-99"/>
      <point x="127" y="-84"/>
      <point x="127" y="-37" type="curve" smooth="yes"/>
      <point x="127" y="12"/>
      <point x="167" y="137"/>
      <point x="167" y="183" type="curve" smooth="yes"/>
      <point x="167" y="225"/>
      <point x="147" y="250"/>
      <point x="112" y="264" type="curve"/>
      <point x="168" y="282"/>
      <point x="198" y="314"/>
      <point x="211" y="377" type="curve" smooth="yes"/>
      <point x="240" y="521" type="line" smooth="yes"/>
      <point x="256" y="600"/>
      <point x="287" y="626"/>
      <point x="410" y="644" type="curve"/>
      <point x="409" y="697" type="line"/>
      <point x="252" y="680"/>
      <point x="199" y="635"/>
      <point x="177" y="531" type="curve" smooth="yes"/>
      <point x="148" y="391" type="line" smooth="yes"/>
      <point x="134" y="325"/>
      <point x="99" y="293"/>
      <point x="27" y="293" type="curve"/>
      <point x="21" y="238" type="line"/>
      <point x="78" y="238"/>
      <point x="101" y="223"/>
      <point x="101" y="182" type="curve" smooth="yes"/>
      <point x="101" y="138"/>
      <point x="62" y="8"/>
      <point x="62" y="-42" type="curve" smooth="yes"/>
      <point x="62" y="-114"/>
      <point x="110" y="-152"/>
    </contour>
  </outline>
</glyph>
<glyph name="sterling" format="1">
  <advance width="668"/>
  <unicode hex="00A3"/>
  <outline>
    <contour>
      <point x="32" y="0" type="line"/>
      <point x="549" y="0" type="line"/>
      <point x="565" y="74" type="line"/>
      <point x="168" y="74" type="line"/>
      <point x="186" y="50" type="line"/>
      <point x="270" y="460" type="line" smooth="yes"/>
      <point x="290" y="557"/>
      <point x="366" y="628"/>
      <point x="450" y="628" type="curve" smooth="yes"/>
      <point x="520" y="628"/>
      <point x="574" y="590"/>
      <point x="579" y="532" type="curve"/>
      <point x="645" y="582" type="line"/>
      <point x="626" y="649"/>
      <point x="548" y="699"/>
      <point x="453" y="699" type="curve" smooth="yes"/>
      <point x="329" y="699"/>
      <point x="222" y="604"/>
      <point x="193" y="466" type="curve" smooth="yes"/>
      <point x="111" y="74" type="line"/>
      <point x="39" y="38" type="line"/>
    </contour>
    <contour>
      <point x="89" y="261" type="line"/>
      <point x="431" y="261" type="line"/>
      <point x="445" y="328" type="line"/>
      <point x="103" y="328" type="line"/>
    </contour>
  </outline>
</glyph>
<glyph name="copyright" format="1">
  <advance width="945"/>
  <unicode hex="00A9"/>
  <outline>
    <contour>
      <point x="395" y="-116" type="curve" smooth="yes"/>
      <point x="622" y="-116"/>
      <point x="827" y="54"/>
      <point x="873" y="280" type="curve" smooth="yes"/>
      <point x="920" y="506"/>
      <point x="785" y="675"/>
      <point x="559" y="675" type="curve" smooth="yes"/>
      <point x="332" y="675"/>
      <point x="127" y="506"/>
      <point x="80" y="280" type="curve" smooth="yes"/>
      <point x="34" y="54"/>
      <point x="169" y="-116"/>
    </contour>
    <contour>
      <point x="402" y="-80" type="curve" smooth="yes"/>
      <point x="197" y="-80"/>
      <point x="74" y="74"/>
      <point x="116" y="280" type="curve" smooth="yes"/>
      <point x="158" y="485"/>
      <point x="345" y="639"/>
      <point x="552" y="639" type="curve" smooth="yes"/>
      <point x="757" y="639"/>
      <point x="879" y="485"/>
      <point x="837" y="280" type="curve" smooth="yes"/>
      <point x="795" y="74"/>
      <point x="609" y="-80"/>
    </contour>
    <contour>
      <point x="425" y="9" type="curve" smooth="yes"/>
      <point x="501" y="9"/>
      <point x="569" y="34"/>
      <point x="631" y="86" type="curve"/>
      <point x="586" y="141" type="line"/>
      <point x="539" y="97"/>
      <point x="490" y="76"/>
      <point x="438" y="76" type="curve" smooth="yes"/>
      <point x="357" y="76"/>
      <point x="288" y="148"/>
      <point x="288" y="234" type="curve" smooth="yes"/>
      <point x="288" y="369"/>
      <point x="395" y="483"/>
      <point x="523" y="483" type="curve" smooth="yes"/>
      <point x="571" y="483"/>
      <point x="622" y="459"/>
      <point x="646" y="425" type="curve"/>
      <point x="705" y="472" type="line"/>
      <point x="666" y="518"/>
      <point x="597" y="550"/>
      <point x="537" y="550" type="curve" smooth="yes"/>
      <point x="359" y="550"/>
      <point x="210" y="403"/>
      <point x="210" y="229" type="curve" smooth="yes"/>
      <point x="210" y="110"/>
      <point x="308" y="9"/>
    </contour>
  </outline>
</glyph>
<glyph name="registered" format="1">
  <advance width="661"/>
  <unicode hex="00AE"/>
  <outline>
    <contour>
      <point x="316" y="184" type="curve" smooth="yes"/>
      <point x="469" y="184"/>
      <point x="618" y="327"/>
      <point x="618" y="479" type="curve" smooth="yes"/>
      <point x="618" y="591"/>
      <point x="536" y="675"/>
      <point x="418" y="675" type="curve" smooth="yes"/>
      <point x="263" y="675"/>
      <point x="115" y="534"/>
      <point x="115" y="381" type="curve" smooth="yes"/>
      <point x="115" y="269"/>
      <point x="197" y="184"/>
    </contour>
    <contour>
      <point x="323" y="220" type="curve" smooth="yes"/>
      <point x="222" y="220"/>
      <point x="152" y="292"/>
      <point x="152" y="387" type="curve" smooth="yes"/>
      <point x="152" y="520"/>
      <point x="279" y="639"/>
      <point x="411" y="639" type="curve" smooth="yes"/>
      <point x="512" y="639"/>
      <point x="582" y="567"/>
      <point x="582" y="473" type="curve" smooth="yes"/>
      <point x="582" y="345"/>
      <point x="459" y="220"/>
    </contour>
    <contour>
      <point x="385" y="279" type="line"/>
      <point x="472" y="279" type="line"/>
      <point x="413" y="397" type="line"/>
      <point x="326" y="397" type="line"/>
    </contour>
    <contour>
      <point x="321" y="444" type="line"/>
      <point x="334" y="505" type="line"/>
      <point x="392" y="505" type="line" smooth="yes"/>
      <point x="414" y="505"/>
      <point x="429" y="495"/>
      <point x="429" y="481" type="curve" smooth="yes"/>
      <point x="429" y="460"/>
      <point x="407" y="444"/>
      <point x="379" y="444" type="curve" smooth="yes"/>
    </contour>
    <contour>
      <point x="209" y="279" type="line"/>
      <point x="287" y="279" type="line"/>
      <point x="306" y="370" type="line"/>
      <point x="372" y="370" type="line" smooth="yes"/>
      <point x="448" y="370"/>
      <point x="510" y="424"/>
      <point x="510" y="499" type="curve" smooth="yes"/>
      <point x="510" y="547"/>
      <point x="474" y="579"/>
      <point x="415" y="579" type="curve" smooth="yes"/>
      <point x="271" y="579" type="line"/>
    </contour>
  </outline>
</glyph>
<glyph name="acute" format="1">
  <advance width="265"/>
  <unicode hex="00B4"/>
  <outline>
    <contour>
      <point x="96" y="576" type="line"/>
      <point x="156" y="576" type="line"/>
      <point x="324" y="702" type="line"/>
      <point x="247" y="720" type="line"/>
    </contour>
    <contour>
      <point x="113" y="517" type="move" name="_top"/>
    </contour>
    <contour>
      <point x="151" y="704" type="move" name="top"/>
    </contour>
  </outline>
</glyph>
<glyph name="paragraph" format="1">
  <advance width="664"/>
  <unicode hex="00B6"/>
  <outline>
    <contour>
      <point x="228" y="-50" type="line"/>
      <point x="290" y="-50" type="line"/>
      <point x="431" y="629" type="line"/>
      <point x="548" y="629" type="line"/>
      <point x="407" y="-50" type="line"/>
      <point x="469" y="-50" type="line"/>
      <point x="622" y="687" type="line"/>
      <point x="366" y="687" type="line"/>
      <point x="227" y="687"/>
      <point x="107" y="591"/>
      <point x="107" y="456" type="curve" smooth="yes"/>
      <point x="107" y="361"/>
      <point x="181" y="297"/>
      <point x="303" y="297" type="curve"/>
    </contour>
  </outline>
</glyph>
<glyph name="periodcentered" format="1">
  <advance width="320"/>
  <unicode hex="00B7"/>
  <outline>
    <contour>
      <point x="158" y="221" type="curve" smooth="yes"/>
      <point x="187" y="221"/>
      <point x="214" y="246"/>
      <point x="214" y="279" type="curve" smooth="yes"/>
      <point x="214" y="305"/>
      <point x="195" y="324"/>
      <point x="168" y="324" type="curve" smooth="yes"/>
      <point x="138" y="324"/>
      <point x="112" y="299"/>
      <point x="112" y="266" type="curve" smooth="yes"/>
      <point x="112" y="240"/>
      <point x="130" y="221"/>
    </contour>
  </outline>
</glyph>
<glyph name="multiply" format="1">
  <advance width="534"/>
  <unicode hex="00D7"/>
  <outline>
    <contour>
      <point x="110" y="146" type="line"/>
      <point x="499" y="470" type="line"/>
      <point x="456" y="523" type="line"/>
      <point x="66" y="198" type="line"/>
    </contour>
    <contour>
      <point x="381" y="146" type="line"/>
      <point x="443" y="199" type="line"/>
      <point x="184" y="523" type="line"/>
      <point x="122" y="470" type="line"/>
    </contour>
  </outline>
</glyph>
<glyph name="Oslash" format="1">
  <advance width="849"/>
  <unicode hex="00D8"/>
  <outline>
    <contour>
      <point x="15" y="0" type="line"/>
      <point x="102" y="0" type="line"/>
      <point x="846" y="687" type="line"/>
      <point x="759" y="687" type="line"/>
    </contour>
    <component base="O" xOffset="6"/>
  </outline>
</glyph>
<glyph name="ae" format="1">
  <advance width="921"/>
  <unicode hex="00E6"/>
  <outline>
    <contour>
      <point x="183" y="-12" type="curve" smooth="yes"/>
      <point x="315" y="-12"/>
      <point x="446" y="88"/>
      <point x="471" y="210" type="curve"/>
      <point x="492" y="312" type="line" smooth="yes"/>
      <point x="518" y="437"/>
      <point x="466" y="529"/>
      <point x="322" y="529" type="curve" smooth="yes"/>
      <point x="275" y="529"/>
      <point x="211" y="517"/>
      <point x="129" y="480" type="curve"/>
      <point x="152" y="417" type="line"/>
      <point x="203" y="441"/>
      <point x="260" y="465"/>
      <point x="315" y="465" type="curve" smooth="yes"/>
      <point x="424" y="465"/>
      <point x="434" y="388"/>
      <point x="419" y="318" type="curve" smooth="yes"/>
      <point x="395" y="206" type="line"/>
      <point x="379" y="125"/>
      <point x="288" y="54"/>
      <point x="199" y="54" type="curve" smooth="yes"/>
      <point x="115" y="54"/>
      <point x="73" y="89"/>
      <point x="86" y="150" type="curve" smooth="yes"/>
      <point x="100" y="215"/>
      <point x="177" y="262"/>
      <point x="256" y="262" type="curve" smooth="yes"/>
      <point x="324" y="262"/>
      <point x="385" y="251"/>
      <point x="436" y="231" type="curve"/>
      <point x="442" y="283" type="line"/>
      <point x="386" y="307"/>
      <point x="317" y="325"/>
      <point x="247" y="325" type="curve" smooth="yes"/>
      <point x="138" y="325"/>
      <point x="35" y="259"/>
      <point x="15" y="159" type="curve" smooth="yes"/>
      <point x="-6" y="52"/>
      <point x="56" y="-12"/>
    </contour>
    <component base="e" xOffset="363"/>
  </outline>
</glyph>
<glyph name="eth" format="1">
  <advance width="616"/>
  <unicode hex="00F0"/>
  <outline>
    <contour>
      <point x="261" y="56" type="curve" smooth="yes"/>
      <point x="175" y="56"/>
      <point x="123" y="110"/>
      <point x="123" y="193" type="curve" smooth="yes"/>
      <point x="123" y="320"/>
      <point x="223" y="432"/>
      <point x="347" y="432" type="curve" smooth="yes"/>
      <point x="436" y="432"/>
      <point x="484" y="373"/>
      <point x="484" y="294" type="curve" smooth="yes"/>
      <point x="484" y="170"/>
      <point x="382" y="56"/>
    </contour>
    <contour>
      <point x="368" y="611"/>
      <point x="456" y="522"/>
      <point x="486" y="417" type="curve"/>
      <point x="451" y="466"/>
      <point x="403" y="498"/>
      <point x="331" y="498" type="curve" smooth="yes"/>
      <point x="171" y="498"/>
      <point x="45" y="352"/>
      <point x="45" y="192" type="curve" smooth="yes"/>
      <point x="45" y="70"/>
      <point x="127" y="-12"/>
      <point x="257" y="-12" type="curve" smooth="yes"/>
      <point x="437" y="-12"/>
      <point x="570" y="159"/>
      <point x="570" y="342" type="curve" smooth="yes"/>
      <point x="570" y="477"/>
      <point x="489" y="584"/>
      <point x="348" y="714" type="curve"/>
      <point x="270" y="687" type="line"/>
    </contour>
    <contour>
      <point x="253" y="525" type="line"/>
      <point x="533" y="640" type="line"/>
      <point x="518" y="702" type="line"/>
      <point x="238" y="587" type="line"/>
    </contour>
  </outline>
</glyph>
<glyph name="dcroat" format="1">
  <advance width="638"/>
  <unicode hex="0111"/>
  <outline>
    <contour>
      <point x="377" y="585" type="line"/>
      <point x="687" y="585" type="line"/>
      <point x="698" y="635" type="line"/>
      <point x="388" y="635" type="line"/>
    </contour>
    <component base="d"/>
  </outline>
</glyph>
<glyph name="Lslash" format="1">
  <advance width="680"/>
  <unicode hex="0141"/>
  <outline>
    <contour>
      <point x="56" y="234" type="line"/>
      <point x="387" y="388" type="line"/>
      <point x="401" y="463" type="line"/>
      <point x="70" y="309" type="line"/>
    </contour>
    <component base="L" xOffset="69"/>
  </outline>
</glyph>
<glyph name="lslash" format="1">
  <advance width="318"/>
  <unicode hex="0142"/>
  <outline>
    <contour>
      <point x="39" y="234" type="line"/>
      <point x="297" y="354" type="line"/>
      <point x="311" y="429" type="line"/>
      <point x="53" y="309" type="line"/>
    </contour>
    <component base="l" xOffset="42"/>
  </outline>
</glyph>
<glyph name="OE" format="1">
  <advance width="1058"/>
  <unicode hex="0152"/>
  <outline>
    <contour>
      <point x="78" y="271" type="curve" smooth="yes"/>
      <point x="78" y="111"/>
      <point x="202" y="0"/>
      <point x="369" y="0" type="curve" smooth="yes"/>
      <point x="939" y="0" type="line"/>
      <point x="955" y="74" type="line"/>
      <point x="542" y="74" type="line"/>
      <point x="590" y="313" type="line"/>
      <point x="964" y="313" type="line"/>
      <point x="979" y="387" type="line"/>
      <point x="607" y="387" type="line"/>
      <point x="652" y="613" type="line"/>
      <point x="1067" y="613" type="line"/>
      <point x="1082" y="687" type="line"/>
      <point x="507" y="687" type="line" smooth="yes"/>
      <point x="294" y="687"/>
      <point x="78" y="488"/>
    </contour>
    <contour>
      <point x="156" y="273" type="curve" smooth="yes"/>
      <point x="156" y="444"/>
      <point x="326" y="615"/>
      <point x="497" y="615" type="curve" smooth="yes"/>
      <point x="574" y="615" type="line"/>
      <point x="461" y="72" type="line"/>
      <point x="379" y="72" type="line" smooth="yes"/>
      <point x="250" y="72"/>
      <point x="156" y="152"/>
    </contour>
  </outline>
</glyph>
<glyph name="circumflex" format="1">
  <advance width="347"/>
  <unicode hex="02C6"/>
  <outline>
    <contour>
      <point x="104" y="576" type="line"/>
      <point x="163" y="576" type="line"/>
      <point x="260" y="662" type="line"/>
      <point x="320" y="576" type="line"/>
      <point x="376" y="576" type="line"/>
      <point x="303" y="713" type="line"/>
      <point x="233" y="713" type="line"/>
    </contour>
    <contour>
      <point x="228" y="517" type="move" name="_top"/>
    </contour>
    <contour>
      <point x="267" y="704" type="move" name="top"/>
    </contour>
  </outline>
</glyph>
<glyph name="caron" format="1">
  <advance width="348"/>
  <unicode hex="02C7"/>
  <outline>
    <contour>
      <point x="205" y="576" type="line"/>
      <point x="275" y="576" type="line"/>
      <point x="406" y="713" type="line"/>
      <point x="346" y="713" type="line"/>
      <point x="248" y="627" type="line"/>
      <point x="189" y="713" type="line"/>
      <point x="134" y="713" type="line"/>
    </contour>
    <contour>
      <point x="227" y="517" type="move" name="_top"/>
    </contour>
    <contour>
      <point x="266" y="704" type="move" name="top"/>
    </contour>
  </outline>
</glyph>
<glyph name="ogonek" format="1">
  <advance width="296"/>
  <unicode hex="02DB"/>
  <outline>
    <contour>
      <point x="91" y="-173" type="curve" smooth="yes"/>
      <point x="120" y="-173"/>
      <point x="150" y="-165"/>
      <point x="177" y="-146" type="curve"/>
      <point x="151" y="-93" type="line"/>
      <point x="138" y="-106"/>
      <point x="118" y="-114"/>
      <point x="97" y="-114" type="curve" smooth="yes"/>
      <point x="70" y="-114"/>
      <point x="54" y="-100"/>
      <point x="54" y="-77" type="curve" smooth="yes"/>
      <point x="54" y="-32"/>
      <point x="85" y="0"/>
      <point x="129" y="0" type="curve"/>
      <point x="67" y="20" type="line"/>
      <point x="27" y="4"/>
      <point x="-3" y="-38"/>
      <point x="-3" y="-88" type="curve" smooth="yes"/>
      <point x="-3" y="-141"/>
      <point x="34" y="-173"/>
    </contour>
    <contour>
      <point x="129" y="0" type="move" name="_bottom"/>
    </contour>
  </outline>
</glyph>
<glyph name="hungarumlaut" format="1">
  <advance width="468"/>
  <unicode hex="02DD"/>
  <outline>
    <contour>
      <point x="96" y="576" type="line"/>
      <point x="156" y="576" type="line"/>
      <point x="324" y="702" type="line"/>
      <point x="247" y="720" type="line"/>
    </contour>
    <contour>
      <point x="296" y="576" type="line"/>
      <point x="356" y="576" type="line"/>
      <point x="524" y="700" type="line"/>
      <point x="447" y="718" type="line"/>
    </contour>
    <contour>
      <point x="209" y="517" type="move" name="_top"/>
    </contour>
    <contour>
      <point x="247" y="704" type="move" name="top"/>
    </contour>
  </outline>
</glyph>
<glyph name="commaaccentcomb" format="1">
  <advance width="233"/>
  <unicode hex="0326"/>
  <outline>
    <contour>
      <point x="-7" y="-277" type="line"/>
      <point x="47" y="-222"/>
      <point x="83" y="-186"/>
      <point x="83" y="-134" type="curve" smooth="yes"/>
      <point x="83" y="-103"/>
      <point x="68" y="-82"/>
      <point x="39" y="-82" type="curve" smooth="yes"/>
      <point x="12" y="-82"/>
      <point x="-11" y="-107"/>
      <point x="-11" y="-132" type="curve" smooth="yes"/>
      <point x="-11" y="-155"/>
      <point x="5" y="-173"/>
      <point x="27" y="-170" type="curve"/>
      <point x="13" y="-197"/>
      <point x="-9" y="-224"/>
      <point x="-37" y="-250" type="curve"/>
    </contour>
    <contour>
      <point x="61" y="0" type="move" name="_bottom"/>
    </contour>
    <contour>
      <point x="166" y="517" type="move" name="_top"/>
    </contour>
  </outline>
</glyph>
<glyph name="endash" format="1">
  <advance width="638"/>
  <unicode hex="2013"/>
  <outline>
    <contour>
      <point x="82" y="236" type="line"/>
      <point x="547" y="236" type="line"/>
      <point x="561" y="307" type="line"/>
      <point x="96" y="307" type="line"/>
    </contour>
  </outline>
</glyph>
<glyph name="emdash" format="1">
  <advance width="943"/>
  <unicode hex="2014"/>
  <outline>
    <contour>
      <point x="82" y="236" type="line"/>
      <point x="852" y="236" type="line"/>
      <point x="866" y="307" type="line"/>
      <point x="96" y="307" type="line"/>
    </contour>
  </outline>
</glyph>
<glyph name="bullet" format="1">
  <advance width="429"/>
  <unicode hex="2022"/>
  <outline>
    <contour>
      <point x="204" y="178" type="curve" smooth="yes"/>
      <point x="274" y="178"/>
      <point x="344" y="243"/>
      <point x="344" y="317" type="curve" smooth="yes"/>
      <point x="344" y="373"/>
      <point x="302" y="417"/>
      <point x="243" y="417" type="curve" smooth="yes"/>
      <point x="170" y="417"/>
      <point x="102" y="351"/>
      <point x="102" y="278" type="curve" smooth="yes"/>
      <point x="102" y="221"/>
      <point x="144" y="178"/>
    </contour>
  </outline>
</glyph>
<glyph name="perthousand" format="1">
  <advance width="1217"/>
  <unicode hex="2030"/>
  <outline>
    <contour>
      <point x="92" y="0" type="line"/>
      <point x="171" y="0" type="line"/>
      <point x="783" y="687" type="line"/>
      <point x="705" y="687" type="line"/>
    </contour>
    <contour>
      <point x="564" y="-10" type="curve" smooth="yes"/>
      <point x="670" y="-10"/>
      <point x="757" y="90"/>
      <point x="757" y="198" type="curve" smooth="yes"/>
      <point x="757" y="275"/>
      <point x="709" y="334"/>
      <point x="625" y="334" type="curve" smooth="yes"/>
      <point x="518" y="334"/>
      <point x="431" y="232"/>
      <point x="431" y="126" type="curve" smooth="yes"/>
      <point x="431" y="46"/>
      <point x="483" y="-10"/>
    </contour>
    <contour>
      <point x="565" y="44" type="curve" smooth="yes"/>
      <point x="520" y="44"/>
      <point x="494" y="77"/>
      <point x="494" y="126" type="curve" smooth="yes"/>
      <point x="494" y="202"/>
      <point x="552" y="280"/>
      <point x="624" y="280" type="curve" smooth="yes"/>
      <point x="668" y="280"/>
      <point x="696" y="247"/>
      <point x="696" y="199" type="curve" smooth="yes"/>
      <point x="696" y="128"/>
      <point x="641" y="44"/>
    </contour>
    <contour>
      <point x="247" y="349" type="curve" smooth="yes"/>
      <point x="353" y="349"/>
      <point x="440" y="447"/>
      <point x="440" y="557" type="curve" smooth="yes"/>
      <point x="440" y="635"/>
      <point x="392" y="693"/>
      <point x="308" y="693" type="curve" smooth="yes"/>
      <point x="202" y="693"/>
      <point x="115" y="593"/>
      <point x="115" y="484" type="curve" smooth="yes"/>
      <point x="115" y="407"/>
      <point x="163" y="349"/>
    </contour>
    <contour>
      <point x="248" y="403" type="curve" smooth="yes"/>
      <point x="204" y="403"/>
      <point x="176" y="437"/>
      <point x="176" y="486" type="curve" smooth="yes"/>
      <point x="176" y="556"/>
      <point x="233" y="639"/>
      <point x="307" y="639" type="curve" smooth="yes"/>
      <point x="351" y="639"/>
      <point x="378" y="605"/>
      <point x="378" y="556" type="curve" smooth="yes"/>
      <point x="378" y="481"/>
      <point x="320" y="403"/>
    </contour>
    <contour>
      <point x="944" y="-10" type="curve" smooth="yes"/>
      <point x="1050" y="-10"/>
      <point x="1137" y="90"/>
      <point x="1137" y="198" type="curve" smooth="yes"/>
      <point x="1137" y="275"/>
      <point x="1089" y="334"/>
      <point x="1005" y="334" type="curve" smooth="yes"/>
      <point x="898" y="334"/>
      <point x="811" y="232"/>
      <point x="811" y="126" type="curve" smooth="yes"/>
      <point x="811" y="46"/>
      <point x="863" y="-10"/>
    </contour>
    <contour>
      <point x="945" y="44" type="curve" smooth="yes"/>
      <point x="900" y="44"/>
      <point x="874" y="77"/>
      <point x="874" y="126" type="curve" smooth="yes"/>
      <point x="874" y="202"/>
      <point x="932" y="280"/>
      <point x="1004" y="280" type="curve" smooth="yes"/>
      <point x="1048" y="280"/>
      <point x="1076" y="247"/>
      <point x="1076" y="199" type="curve" smooth="yes"/>
      <point x="1076" y="128"/>
      <point x="1021" y="44"/>
    </contour>
  </outline>
</glyph>
<glyph name="guilsinglright" format="1">
  <advance width="309"/>
  <unicode hex="203A"/>
  <outline>
    <contour>
      <point x="71" y="52" type="line"/>
      <point x="273" y="251" type="line"/>
      <point x="151" y="448" type="line"/>
      <point x="83" y="432" type="line"/>
      <point x="192" y="252" type="line"/>
      <point x="6" y="69" type="line"/>
    </contour>
  </outline>
</glyph>
<glyph name="minus" format="1">
  <advance width="718"/>
  <unicode hex="2212"/>
  <outline>
    <contour>
      <point x="137" y="297" type="line"/>
      <point x="596" y="297" type="line"/>
      <point x="612" y="371" type="line"/>
      <point x="153" y="371" type="line"/>
    </contour>
  </outline>
</glyph>
<glyph name="a.alt" format="1">
  <advance width="555"/>
  <outline>
    <contour>
      <point x="352" y="0" type="curve"/>
      <point x="427" y="0" type="line"/>
      <point x="491" y="311"/>
      <point x="498" y="328"/>
      <point x="498" y="371" type="curve" smooth="yes"/>
      <point x="498" y="465"/>
      <point x="442" y="529"/>
      <point x="322" y="529" type="curve" smooth="yes"/>
      <point x="275" y="529"/>
      <point x="211" y="517"/>
      <point x="129" y="480" type="curve"/>
      <point x="152" y="417" type="line"/>
      <point x="203" y="441"/>
      <point x="260" y="465"/>
      <point x="315" y="465" type="curve" smooth="yes"/>
      <point x="400" y="465"/>
      <point x="424" y="418"/>
      <point x="424" y="365" type="curve" smooth="yes"/>
      <point x="424" y="333"/>
      <point x="421" y="331"/>
    </contour>
    <contour>
      <point x="173" y="-12" type="curve" smooth="yes"/>
      <point x="253" y="-12"/>
      <point x="356" y="32"/>
      <point x="395" y="120" type="curve"/>
      <point x="385" y="165" type="line"/>
      <point x="351" y="92"/>
      <point x="260" y="54"/>
      <point x="189" y="54" type="curve" smooth="yes"/>
      <point x="127" y="54"/>
      <point x="84" y="81"/>
      <point x="84" y="130" type="curve" smooth="yes"/>
      <point x="84" y="205"/>
      <point x="169" y="262"/>
      <point x="256" y="262" type="curve" smooth="yes"/>
      <point x="324" y="262"/>
      <point x="385" y="251"/>
      <point x="436" y="231" type="curve"/>
      <point x="442" y="283" type="line"/>
      <point x="386" y="307"/>
      <point x="317" y="325"/>
      <point x="247" y="325" type="curve" smooth="yes"/>
      <point x="126" y="325"/>
      <point x="11" y="243"/>
      <point x="11" y="121" type="curve" smooth="yes"/>
      <point x="11" y="39"/>
      <point x="76" y="-12"/>
    </contour>
    <contour>
      <point x="427" y="0" type="move" name="bottom"/>
    </contour>
    <contour>
      <point x="324" y="517" type="move" name="top"/>
    </contour>
  </outline>
</glyph>
<glyph name="ascender" format="1">
  <advance width="250"/>
  <outline>
    <contour>
      <point x="34" y="0" type="line"/>
      <point x="109" y="0" type="line"/>
      <point x="254" y="699" type="line"/>
      <point x="179" y="699" type="line"/>
    </contour>
    <contour>
      <point x="124" y="127" type="move" name="k_arms"/>
    </contour>
    <contour>
      <point x="88" y="260" type="move" name="loop_left"/>
    </contour>
    <contour>
      <point x="161" y="253" type="move" name="loop_right"/>
    </contour>
    <contour>
      <point x="176" y="326" type="move" name="shoulder"/>
    </contour>
  </outline>
</glyph>
<glyph name="lowercase_r_shoulder" format="1">
  <advance width="308"/>
  <outline>
    <contour>
      <point x="77" y="287" type="line"/>
      <point x="98" y="388"/>
      <point x="199" y="462"/>
      <point x="316" y="462" type="curve"/>
      <point x="325" y="529" type="line"/>
      <point x="198" y="529"/>
      <point x="96" y="453"/>
      <point x="73" y="342" type="curve"/>
    </contour>
    <contour>
      <point x="77" y="287" type="move" name="_r_shoulder"/>
    </contour>
  </outline>
</glyph>
<glyph name="thorn_stem" format="1">
  <advance width="248"/>
  <outline>
    <contour>
      <point x="-3" y="-172" type="line"/>
      <point x="72" y="-172" type="line"/>
      <point x="253" y="699" type="line"/>
      <point x="178" y="699" type="line"/>
    </contour>
    <contour>
      <point x="160" y="253" type="move" name="loop_right"/>
    </contour>
  </outline>
</glyph>
